<svg xmlns="http://www.w3.org/2000/svg" viewBox="0 0 1000 1000"><title>Color-3</title><g id="Color-3"><text transform="translate(30.76 605.16)" style="font-size:500px;fill:#00384f;font-family:TabarraShadow, Tabarra Shadow">DSI</text><rect x="17" y="362.38" width="974" height="114" style="fill:#fff"/><text transform="translate(21.73 437.84) scale(1.02 1)" style="font-size:72px;fill:#a67c52;font-family:FredokaOne-Regular, Fredoka One;letter-spacing:-0.049998298865226234em"><tspan xml:space="preserve">  Dog   Servi</tspan><tspan x="360.71" y="0" style="letter-spacing:-0.06500443723474959em">c</tspan><tspan x="393.26" y="0" xml:space="preserve">es   I</tspan><tspan x="521.27" y="0" style="letter-spacing:-0.059997958638271474em">n</tspan><tspan x="560.58" y="0" style="letter-spacing:-0.06998432099140578em">t</tspan><tspan x="587.87" y="0">ernational</tspan></text><path d="M749.13,758.7c0,9.73-20.46,25.09-30,22.27-5.66-1.68-7.06-5.92-4.33-10.91,4.33-7.91,5.24-15.72,3-24.65-2.06-8.06,3.45-12,11.29-9.34C740.6,740.05,749.13,749.66,749.13,758.7Z" style="fill:#a67c52"/><path d="M378.24,744.16c-.06-1.07-.08-2.14-.22-3.2-.73-5.39-4.71-11.64,2-15.49,6.9-4,12.22,1.56,17.24,5,15.17,10.53,14.47,24.36-1.38,33.73a29.6,29.6,0,0,1-4.76,2.42c-5.45,2-11,7-16.71,1.27-5.35-5.33.16-9.85,2.07-14.44A20.16,20.16,0,0,0,378.24,744.16Z" style="fill:#a67c52"/><path d="M221.25,712.57c4.11-8.33.83-16.94-3.19-26-2.66-6,.88-10.13,8-10.21,12.33-.12,25.07,9.41,25.84,19.46.75,9.87-12.15,24.74-22.68,26.31C222.69,723.09,221.07,719.48,221.25,712.57Z" style="fill:#a67c52"/><path d="M889.16,672c12.29.24,24.45,9.44,25.31,19.15.87,9.93-10.64,23.6-21.83,26.08-6.67,1.48-10.74-2-9-7.78,2.88-9.66,1.29-17.86-2.65-26.7C877.89,675.81,881.61,671.9,889.16,672Z" style="fill:#a67c52"/><path d="M552.47,676.21c5.17,0,9.8,1.84,14.19,4.28,10.64,5.93,12.65,13.83,6.66,24.42-2.29,4.06-4.53,8-8.29,11-4.23,3.29-8.54,7.68-14.24,5-5.9-2.8-3.67-8.83-2.82-13.45,1.19-6.55-1.29-11.75-4-17.25C539,680.11,541.73,675.85,552.47,676.21Z" style="fill:#a67c52"/><path d="M61.21,781.85c-4.53-.17-7-4.78-3.74-10.57,4.43-8,5.65-15.45,3.71-24.45-1.82-8.46,3.27-11.86,11.47-9.12a32.6,32.6,0,0,1,13.91,9.62c8.41,9.43,7,20.47-3.68,27.28C77.23,778.23,71.4,782,61.21,781.85Z" style="fill:#a67c52"/><path d="M940,708.79c-6.83-.81-14-2.28-14.17-10.09-.17-6.29,6.39-8.38,11.73-8.28,6.36.13,14,1.55,14.42,9.45C952.37,706.93,945.72,708.19,940,708.79Z" style="fill:#a67c52"/><path d="M434,731.24c4.91.27,11.31,1.08,11.19,7.84-.15,8.06-7.54,9.67-14,10-5.48.3-11.81-1.46-11.82-8C419.33,732.63,426.73,731.94,434,731.24Z" style="fill:#a67c52"/><path d="M277.74,713c-7-.62-14-2.17-14.16-10.16-.11-6.48,6.42-8.47,11.87-8.18,6.36.34,14.05,1.57,14,10C289.38,711.13,283.2,712.51,277.74,713Z" style="fill:#a67c52"/><path d="M600.31,691.2c7.85.1,14.35,2,14.49,8.55.16,7.41-6.57,9.25-13.19,9.09-6-.16-12.59-1.46-12.8-8.44C588.57,692.42,595.83,691.88,600.31,691.2Z" style="fill:#a67c52"/><path d="M115.45,785.84c-6.43-.46-13.37-3-14.75-11.06-1.07-6.26,4.66-8.28,9.82-8.12,7.52.24,14.39,3,15.33,11.51C126.47,783.77,121.81,785.78,115.45,785.84Z" style="fill:#a67c52"/><path d="M773.22,760.18c-6.26-.64-12.59-1.57-12.88-8-.38-8.49,7.49-9.67,13.62-10.28,5.23-.53,12,.91,12.08,7.55C786.17,757.52,778.66,758.54,773.22,760.18Z" style="fill:#a67c52"/><path d="M427.73,753.31c6.48.72,13.45,2.38,14.62,10.53.92,6.5-4.9,8.57-9.9,8.49-7.07-.11-13.92-3.07-15.19-10.75C416.23,755.29,421.68,753.56,427.73,753.31Z" style="fill:#a67c52"/><path d="M933.56,686.87c-4.86-.84-10.5-2.45-9.69-7.8,1.19-7.91,7.6-11.37,15.55-11.43,5.09,0,9.78,1.37,9.43,7.4C948.31,684.41,940.07,684.75,933.56,686.87Z" style="fill:#a67c52"/><path d="M769.73,764.09c6.08,1.18,13.23,2.75,13.61,11.29.3,6.55-5.67,8.12-10.6,7.59-6.79-.72-14.14-3.19-14.59-11.37C757.82,765.41,763.57,764.15,769.73,764.09Z" style="fill:#a67c52"/><path d="M115.12,762.55c-5.67-.45-11.63-1.63-11.29-8.57.38-7.87,7.24-8.88,13.47-9,6.06-.13,12.52,1.36,11.8,8.94S121.31,762,115.12,762.55Z" style="fill:#a67c52"/><path d="M276.1,671.88c5.83.12,10.07,1.39,10.23,7.5.16,5.65-8.31,12.1-15.55,11.41-4.57-.43-10.53-2-9.56-7.58C262.58,675.42,268.92,671.91,276.1,671.88Z" style="fill:#a67c52"/><path d="M586.62,727.35c-6.21-1.4-13-2.26-13.47-10-.41-6.62,5.32-8.33,10.32-8,6,.4,12.73,2.08,13.22,9.77C597.12,725.75,591.41,726.52,586.62,727.35Z" style="fill:#a67c52"/><path d="M571.54,676.65c-4.59.25-7.66-1.65-8-6.4-.47-5.81,7.67-12.9,14.59-13,4.51-.08,7.64,1.66,8,6.52C586.44,669.68,578.47,676.67,571.54,676.65Z" style="fill:#a67c52"/><path d="M923.45,725.73c-6.81-1.37-13.86-2.75-14.61-10.53-.56-5.75,5.06-7.4,9.81-7.45,6.93-.07,13.28,2.69,14.18,10.15C933.54,723.73,927.63,724.51,923.45,725.73Z" style="fill:#a67c52"/><path d="M411,732.27c-5.22-.29-9.8-1.43-9.3-7,.77-8.44,7.3-10.31,14.5-10.48,4.65-.12,9.33,1.3,8.8,6.66C424.15,729.77,417.27,731.42,411,732.27Z" style="fill:#a67c52"/><path d="M925.35,662.76c-1.37,7.52-7,10.67-14.25,11.41-4.37.45-7.66-1.38-7.92-6.48-.33-6.3,7.33-12.89,14.67-12.62C922.48,655.24,925.16,657.41,925.35,662.76Z" style="fill:#a67c52"/><path d="M748.94,742.76c-3.26-.4-7.53-2.1-6.14-7.73,1.83-7.34,7.68-9.71,14.78-9.45,4.78.17,8.62,1.71,8.54,7.31C766.05,738.22,757.45,743.53,748.94,742.76Z" style="fill:#a67c52"/><path d="M96.63,745.11c-6.35,0-11.48-1.76-10.64-7.49,1-6.72,6.63-9.71,13.46-9.77,5.07-.05,10.39,1.38,10,7C109,742.77,102.13,744.37,96.63,745.11Z" style="fill:#a67c52"/><path d="M89.07,778.86c7.15.79,13,4.1,13.87,11.81.68,5.72-4.26,6.51-8.75,6.37-7.52-.24-13.16-3.52-14-11.45C79.64,779.87,84.36,779.09,89.07,778.86Z" style="fill:#a67c52"/><path d="M256.88,711.86c6.54.9,12.87,3.15,13.45,10.17.52,6.36-5.57,8-10.66,7.53-6.2-.54-12.41-2.78-12.6-10.49C246.91,712.67,252.43,712.54,256.88,711.86Z" style="fill:#a67c52"/><path d="M747.15,776.77c7.11.84,12.72,4.36,13.54,12.13.51,4.9-4.09,6.6-8.11,6.35-7.21-.45-13.35-3.43-14.27-11.53C737.65,777.92,742.21,777,747.15,776.77Z" style="fill:#a67c52"/><path d="M403.83,781.84c-5.31-2.81-9.07-7-5.36-12.77,3.21-5,9-3.73,13.54-1.41s9.05,6,7.36,11.67c-2.1,7-7.95,5.59-13.29,3.89-3-2.71,2.23-4.51.74-7.22C405,777.62,405.73,780.43,403.83,781.84Z" style="fill:#a67c52"/><path d="M249.4,661.38c4.89-3.27,9.93-3.37,12.55,2.16,2.5,5.27-.76,9.72-5.45,12.4-4.31,2.46-9,4.68-13.73.6C244.32,671.2,245.13,665.53,249.4,661.38Z" style="fill:#a67c52"/><path d="M601.23,684.8c-4.35.27-8.47,5.38-13.05.6-2-3.74-1.69-7.44.14-11.13h0a23,23,0,0,1,3.75-1.95c4.33-2.11,9-6.35,13.2-.89S605.39,681.17,601.23,684.8Z" style="fill:#a67c52"/><path d="M601.23,684.8c.57-2,.56-4.54,1.83-5.82,2.49-2.5,3.05-4.67.59-7.16s-5.12-1.92-7.5.15a10.51,10.51,0,0,1-7.84,2.31c1.43-3.21,4.46-4.42,7.41-5.4,5.76-1.89,12.11-2,14.17,4.55C611.8,679.55,608.05,684,601.23,684.8Z" style="fill:#a67c52"/><path d="M249.4,661.38l2,.46c-2.74,5-3.75,11-8.65,14.7C237.49,668.21,242.17,664.24,249.4,661.38Z" style="fill:#a67c52"/><path d="M403.83,781.84c.76-4-1.36-8.42,2.21-12.74,4.29,5.07,6.93,9.47,0,14.12Z" style="fill:#a67c52"/><path d="M588.32,674.27q-.06,5.57-.14,11.13C582.88,681.62,584.79,677.94,588.32,674.27Z" style="fill:#a67c52"/></g></svg>